_states
version=1
nRows=4
nColumns=199
inDegrees=yes

# SIMM Motion File Header:
name _states
datacolumns 199
datarows 4
otherdata 1
range 0.00000000 0.00000003
endheader
time	/jointset/ground_thorax/thorax_rot1/value	/jointset/ground_thorax/thorax_rot1/speed	/jointset/ground_thorax/thorax_rot2/value	/jointset/ground_thorax/thorax_rot2/speed	/jointset/ground_thorax/thorax_rot3/value	/jointset/ground_thorax/thorax_rot3/speed	/jointset/sternoclavicular/sternoclavicular_r2/value	/jointset/sternoclavicular/sternoclavicular_r2/speed	/jointset/sternoclavicular/sternoclavicular_r3/value	/jointset/sternoclavicular/sternoclavicular_r3/speed	/jointset/unrotscap/unrotscap_r3/value	/jointset/unrotscap/unrotscap_r3/speed	/jointset/unrotscap/unrotscap_r2/value	/jointset/unrotscap/unrotscap_r2/speed	/jointset/acromioclavicular/acromioclavicular_r2/value	/jointset/acromioclavicular/acromioclavicular_r2/speed	/jointset/acromioclavicular/acromioclavicular_r3/value	/jointset/acromioclavicular/acromioclavicular_r3/speed	/jointset/acromioclavicular/acromioclavicular_r1/value	/jointset/acromioclavicular/acromioclavicular_r1/speed	/jointset/unrothum/unrothum_r1/value	/jointset/unrothum/unrothum_r1/speed	/jointset/unrothum/unrothum_r3/value	/jointset/unrothum/unrothum_r3/speed	/jointset/unrothum/unrothum_r2/value	/jointset/unrothum/unrothum_r2/speed	/jointset/shoulder0/elv_angle/value	/jointset/shoulder0/elv_angle/speed	/jointset/shoulder1/shoulder_ab_ad/value	/jointset/shoulder1/shoulder_ab_ad/speed	/jointset/shoulder1/shoulder1_r2/value	/jointset/shoulder1/shoulder1_r2/speed	/jointset/shoulder2/shoulder_ext_int/value	/jointset/shoulder2/shoulder_ext_int/speed	/jointset/phys_joint/ra_sh_ad_ab/value	/jointset/phys_joint/ra_sh_ad_ab/speed	/jointset/phys_joint/ra_sh_e_f/value	/jointset/phys_joint/ra_sh_e_f/speed	/jointset/phys_joint/ra_sh_ext_int/value	/jointset/phys_joint/ra_sh_ext_int/speed	/jointset/RA1H_RA2U/elbow_flexion/value	/jointset/RA1H_RA2U/elbow_flexion/speed	/jointset/RA1H_RA2U/ra_el_e_f/value	/jointset/RA1H_RA2U/ra_el_e_f/speed	/jointset/RA2U_RA2R/ra_wr_s_p/value	/jointset/RA2U_RA2R/ra_wr_s_p/speed	/jointset/RA2R_RA3M/ra_wr_e_f/value	/jointset/RA2R_RA3M/ra_wr_e_f/speed	/jointset/RA2R_RA3M/ra_wr_ad_ab/value	/jointset/RA2R_RA3M/ra_wr_ad_ab/speed	/jointset/RA3M_RA4P1/ra_cmc1_ad_ab/value	/jointset/RA3M_RA4P1/ra_cmc1_ad_ab/speed	/jointset/RA3M_RA4P1/ra_cmc1_f_e/value	/jointset/RA3M_RA4P1/ra_cmc1_f_e/speed	/jointset/RA4P1_RA5C1/ra_mcp1_f_e/value	/jointset/RA4P1_RA5C1/ra_mcp1_f_e/speed	/jointset/RA5C1_RA6D1/ra_ip1_f_e/value	/jointset/RA5C1_RA6D1/ra_ip1_f_e/speed	/jointset/RA3M_RA4P2/ra_mcp2_e_f/value	/jointset/RA3M_RA4P2/ra_mcp2_e_f/speed	/jointset/RA3M_RA4P2/ra_mcp2_ab_ad/value	/jointset/RA3M_RA4P2/ra_mcp2_ab_ad/speed	/jointset/RA4P2_RA5C2/ra_pip2_e_f/value	/jointset/RA4P2_RA5C2/ra_pip2_e_f/speed	/jointset/RA5C2_RA6D2/ra_dip2_e_f/value	/jointset/RA5C2_RA6D2/ra_dip2_e_f/speed	/jointset/RA3M_RA4P3/ra_mcp3_e_f/value	/jointset/RA3M_RA4P3/ra_mcp3_e_f/speed	/jointset/RA3M_RA4P3/ra_mcp3_ab_ad/value	/jointset/RA3M_RA4P3/ra_mcp3_ab_ad/speed	/jointset/RA4P3_RA5C3/ra_pip3_e_f/value	/jointset/RA4P3_RA5C3/ra_pip3_e_f/speed	/jointset/RA5C3_RA6D3/ra_dip3_e_f/value	/jointset/RA5C3_RA6D3/ra_dip3_e_f/speed	/jointset/RA3M_RA4P4/ra_mcp4_e_f/value	/jointset/RA3M_RA4P4/ra_mcp4_e_f/speed	/jointset/RA3M_RA4P4/ra_mcp4_ab_ad/value	/jointset/RA3M_RA4P4/ra_mcp4_ab_ad/speed	/jointset/RA4P4_RA5C4/ra_pip4_e_f/value	/jointset/RA4P4_RA5C4/ra_pip4_e_f/speed	/jointset/RA5C4_RA6D4/ra_dip4_e_f/value	/jointset/RA5C4_RA6D4/ra_dip4_e_f/speed	/jointset/RA3M_RA4P5/ra_mcp5_e_f/value	/jointset/RA3M_RA4P5/ra_mcp5_e_f/speed	/jointset/RA3M_RA4P5/ra_mcp5_ab_ad/value	/jointset/RA3M_RA4P5/ra_mcp5_ab_ad/speed	/jointset/RA4P5_RA5C5/ra_pip5_e_f/value	/jointset/RA4P5_RA5C5/ra_pip5_e_f/speed	/jointset/RA5C5_RA6D5/ra_dip5_e_f/value	/jointset/RA5C5_RA6D5/ra_dip5_e_f/speed	/forceset/DELT_A/activation	/forceset/DELT_A/fiber_length	/forceset/DELT_LAT/activation	/forceset/DELT_LAT/fiber_length	/forceset/DELT_P/activation	/forceset/DELT_P/fiber_length	/forceset/SUPSP/activation	/forceset/SUPSP/fiber_length	/forceset/INFSP/activation	/forceset/INFSP/fiber_length	/forceset/SUBSC/activation	/forceset/SUBSC/fiber_length	/forceset/TERMI/activation	/forceset/TERMI/fiber_length	/forceset/TERMA/activation	/forceset/TERMA/fiber_length	/forceset/PECM_R/activation	/forceset/PECM_R/fiber_length	/forceset/PECM_M/activation	/forceset/PECM_M/fiber_length	/forceset/PECM_C/activation	/forceset/PECM_C/fiber_length	/forceset/LATD_R/activation	/forceset/LATD_R/fiber_length	/forceset/LATD_M/activation	/forceset/LATD_M/fiber_length	/forceset/LATD_C/activation	/forceset/LATD_C/fiber_length	/forceset/CORBR/activation	/forceset/CORBR/fiber_length	/forceset/TRI_LO/activation	/forceset/TRI_LO/fiber_length	/forceset/TRI_LAT/activation	/forceset/TRI_LAT/fiber_length	/forceset/TRI_M/activation	/forceset/TRI_M/fiber_length	/forceset/ANC/activation	/forceset/ANC/fiber_length	/forceset/SUP/activation	/forceset/SUP/fiber_length	/forceset/BIC_LO/activation	/forceset/BIC_LO/fiber_length	/forceset/BIC_SH/activation	/forceset/BIC_SH/fiber_length	/forceset/BR/activation	/forceset/BR/fiber_length	/forceset/BRR/activation	/forceset/BRR/fiber_length	/forceset/ECR_LO/activation	/forceset/ECR_LO/fiber_length	/forceset/ECR_BR/activation	/forceset/ECR_BR/fiber_length	/forceset/ECU/activation	/forceset/ECU/fiber_length	/forceset/FCR/activation	/forceset/FCR/fiber_length	/forceset/FCU/activation	/forceset/FCU/fiber_length	/forceset/PL/activation	/forceset/PL/fiber_length	/forceset/PT/activation	/forceset/PT/fiber_length	/forceset/PQ/activation	/forceset/PQ/fiber_length	/forceset/FDS5/activation	/forceset/FDS5/fiber_length	/forceset/FDS4/activation	/forceset/FDS4/fiber_length	/forceset/FDS3/activation	/forceset/FDS3/fiber_length	/forceset/FDS2/activation	/forceset/FDS2/fiber_length	/forceset/FDP5/activation	/forceset/FDP5/fiber_length	/forceset/FDP4/activation	/forceset/FDP4/fiber_length	/forceset/FDP3/activation	/forceset/FDP3/fiber_length	/forceset/FDP2/activation	/forceset/FDP2/fiber_length	/forceset/ED5/activation	/forceset/ED5/fiber_length	/forceset/ED4/activation	/forceset/ED4/fiber_length	/forceset/ED3/activation	/forceset/ED3/fiber_length	/forceset/ED2/activation	/forceset/ED2/fiber_length	/forceset/EDM/activation	/forceset/EDM/fiber_length	/forceset/EIND/activation	/forceset/EIND/fiber_length	/forceset/EPL/activation	/forceset/EPL/fiber_length	/forceset/EPB/activation	/forceset/EPB/fiber_length	/forceset/FPL/activation	/forceset/FPL/fiber_length	/forceset/FPB/activation	/forceset/FPB/fiber_length	/forceset/OP/activation	/forceset/OP/fiber_length	/forceset/APL/activation	/forceset/APL/fiber_length	/forceset/APB/activation	/forceset/APB/fiber_length	/forceset/ADPT/activation	/forceset/ADPT/fiber_length
      0.00000000	      0.00000000	      0.00000000	      0.00000000	      0.00000000	      0.00000000	      0.00000000	     -0.00000000	      0.00000000	     -0.00000000	      0.00000000	      0.00000000	      0.00000000	     -0.00000000	      0.00000000	      0.00000000	      0.00000000	     -0.00000000	      0.00000000	     -0.00000000	      0.00000000	      0.00000000	      0.00000000	      0.00000000	      0.00000000	     -0.00000000	      0.00000000	      0.00000000	      0.00000000	     -0.00000000	      0.00000000	      0.00000000	      0.00000000	      0.00000000	      0.00000000	     -0.00000000	      0.00000000	     -0.00000001	      0.00000000	      0.00000000	      0.00000000	     -0.00000115	      0.00000000	     90.00000000	      0.00000000	     -9.25200000	      0.00000000	      0.00000000	      0.00000000	      0.00000000	      0.00000000	     20.00000005	      0.00000000	     22.91831181	      0.00000000	    -15.88200035	      0.00000000	     -0.05087521	      0.00000000	      0.01691022	      0.00000000	      0.00000000	      0.00000000	      0.00880791	      0.00000000	      0.03736630	      0.00000000	      0.02613915	      0.00000000	      0.00000000	      0.00000000	      0.01852224	      0.00000000	      0.00884271	      0.00000000	      0.00884324	      0.00000000	      0.00000000	      0.00000000	      0.00880841	      0.00000000	      0.00884324	      0.00000000	      0.00884324	      0.00000000	      0.00000000	      0.00000000	      0.00880841	      0.00000000	      0.00884324	      0.00000000	      0.05000000	      0.10000000	      0.05000000	      0.10000000	      0.05000000	      0.10000000	      0.05000000	      0.10000000	      0.05000000	      0.10000000	      0.05000000	      0.10000000	      0.05000000	      0.10000000	      0.05000000	      0.10000000	      0.05000000	      0.10000000	      0.05000000	      0.10000000	      0.05000000	      0.10000000	      0.05000000	      0.11280140	      0.05000000	      0.10320884	      0.05000000	      0.12385949	      0.05000000	      0.10000000	      0.05000000	      0.10000000	      0.05000000	      0.10000000	      0.05000000	      0.10000000	      0.05000000	      0.10000000	      0.05000000	      0.10000000	      0.05000000	      0.10000000	      0.05000000	      0.10000000	      0.05000000	      0.10000000	      0.05000000	      0.10000000	      0.05000000	      0.10000000	      0.05000000	      0.10000000	      0.05000000	      0.10000000	      0.05000000	      0.10000000	      0.05000000	      0.10000000	      0.05000000	      0.10000000	      0.05000000	      0.10000000	      0.05000000	      0.10000000	      0.05000000	      0.10000000	      0.05000000	      0.10000000	      0.05000000	      0.10000000	      0.05000000	      0.10000000	      0.05000000	      0.10000000	      0.05000000	      0.10000000	      0.05000000	      0.10000000	      0.05000000	      0.10000000	      0.05000000	      0.10000000	      0.05000000	      0.10000000	      0.05000000	      0.10000000	      0.05000000	      0.10000000	      0.05000000	      0.10000000	      0.05000000	      0.10000000	      0.05000000	      0.10000000	      0.05000000	      0.10000000	      0.05000000	      0.10000000	      0.05000000	      0.10000000	      0.05000000	      0.10000000	      0.05000000	      0.10000000	      0.05000000	      0.10000000	      0.05000000	      0.10000000
      0.00000001	     -0.00000000	     -0.00022912	     -0.00000000	     -0.00290332	      0.00000000	      0.00700279	     -0.00000000	     -0.19922319	      0.00000000	      0.19222293	     -0.00000000	     -0.18528296	      0.00000000	      0.20195492	     -0.00000000	     -0.28937212	      0.00000000	      0.18118554	      0.00000000	      0.74041285	     -0.00000000	     -0.73944959	      0.00000000	     -0.18022516	      0.00000000	      0.28916181	      0.00000000	     -0.00000000	     -0.00000000	     -0.00000000	     -0.00000000	      0.00000000	     -0.00000000	     -0.01140017	     -0.00000000	     -0.05286707	     -0.00000001	      0.01140473	      0.00000000	      0.10758050	     -0.00000116	     -2.37708964	     90.00000001	      2.23634634	     -9.25200000	     -0.17522351	     -0.00000000	     -0.01495782	      0.00000000	      0.22337601	     20.00000005	     -0.00458099	     22.91831181	     -0.01069798	    -15.88200035	     -0.03180916	     -0.05087521	     -0.07386300	      0.01691022	      0.03348267	     -0.00000000	     -0.13846593	      0.00880791	      0.01316680	      0.03736630	     -0.05952804	      0.02613915	      0.04217239	     -0.00000000	     -0.13728956	      0.01852224	     -0.05781644	      0.00884271	      0.23115723	      0.00884324	      0.03856656	     -0.00000000	     -0.13030935	      0.00880841	     -0.02779920	      0.00884324	      0.01169104	      0.00884324	      0.02696940	     -0.00000000	     -0.11728842	      0.00880841	      0.00158898	      0.00884324	     -0.01068464	      0.04999999	      0.10000041	      0.04999999	      0.10000000	      0.04999999	      0.10000306	      0.04999999	      0.09999997	      0.04999999	      0.09999999	      0.04999999	      0.10000017	      0.04999999	      0.09999999	      0.04999999	      0.10000655	      0.04999999	      0.10004199	      0.04999999	      0.10000000	      0.04999999	      0.10000000	      0.04999999	      0.11282009	      0.04999999	      0.10321121	      0.04999999	      0.12386864	      0.04999999	      0.10000000	      0.04999999	      0.10000194	      0.04999999	      0.10000011	      0.04999999	      0.10000000	      0.04999999	      0.09999982	      0.04999999	      0.09999984	      0.04999999	      0.10000002	      0.04999999	      0.10000005	      0.04999999	      0.10000000	      0.04999999	      0.10000154	      0.04999999	      0.09999999	      0.04999999	      0.10000002	      0.04999999	      0.09999996	      0.04999999	      0.09999996	      0.04999999	      0.09999991	      0.04999999	      0.09999996	      0.04999999	      0.09999990	      0.04999999	      0.09999982	      0.04999999	      0.09999991	      0.04999999	      0.09999999	      0.04999999	      0.09999999	      0.04999999	      0.10000001	      0.04999999	      0.09999999	      0.04999999	      0.10000000	      0.04999999	      0.10000001	      0.04999999	      0.09999999	      0.04999999	      0.09999996	      0.04999999	      0.09999996	      0.04999999	      0.09999998	      0.04999999	      0.09999998	      0.04999999	      0.09999997	      0.04999999	      0.09999994	      0.04999999	      0.09999992	      0.04999999	      0.09999997	      0.04999999	      0.09999993	      0.04999999	      0.09999993	      0.04999999	      0.09999993	      0.04999999	      0.09999998	      0.04999999	      0.09999993	      0.04999999	      0.09999993
      0.00000002	     -0.00000000	     -0.00045806	     -0.00000000	     -0.00580172	      0.00000000	      0.01399502	     -0.00000000	     -0.39824957	      0.00000000	      0.38418249	     -0.00000000	     -0.37031303	      0.00000000	      0.40370834	     -0.00000001	     -0.57852398	      0.00000000	      0.36232724	      0.00000001	      1.48000318	     -0.00000001	     -1.47807804	     -0.00000000	     -0.36040786	      0.00000001	      0.57810366	      0.00000000	      0.00000000	     -0.00000000	     -0.00000000	      0.00000000	      0.00000000	     -0.00000000	     -0.02311182	     -0.00000001	     -0.10566221	     -0.00000001	      0.02279928	      0.00000000	      0.21524242	     -0.00000119	     -4.74774745	     90.00000004	      4.46651330	     -9.25200000	     -0.35004064	     -0.00000000	     -0.02997371	      0.00000000	      0.44641227	     20.00000005	     -0.00913304	     22.91831181	     -0.02136896	    -15.88200035	     -0.06358843	     -0.05087522	     -0.14760863	      0.01691022	      0.06700916	     -0.00000000	     -0.27673033	      0.00880791	      0.02631633	      0.03736630	     -0.11904914	      0.02613915	      0.08439681	     -0.00000000	     -0.27437894	      0.01852223	     -0.11566081	      0.00884271	      0.46232605	      0.00884324	      0.07718973	     -0.00000000	     -0.26042904	      0.00880841	     -0.05563430	      0.00884324	      0.02339706	      0.00884324	      0.05401419	     -0.00000000	     -0.23440670	      0.00880841	      0.00309471	      0.00884324	     -0.02132094	      0.04999999	      0.10000081	      0.04999999	      0.10000000	      0.04999999	      0.10000612	      0.04999999	      0.09999995	      0.04999999	      0.09999998	      0.04999999	      0.10000034	      0.04999999	      0.09999997	      0.04999999	      0.10001311	      0.04999999	      0.10008391	      0.04999999	      0.09999999	      0.04999999	      0.09999999	      0.04999999	      0.11283874	      0.04999999	      0.10321359	      0.04999999	      0.12387779	      0.04999999	      0.09999999	      0.04999999	      0.10000389	      0.04999999	      0.10000022	      0.04999999	      0.10000000	      0.04999999	      0.09999964	      0.04999999	      0.09999968	      0.04999999	      0.10000004	      0.04999999	      0.10000009	      0.04999999	      0.10000000	      0.04999999	      0.10000309	      0.04999999	      0.09999999	      0.04999999	      0.10000004	      0.04999999	      0.09999991	      0.04999999	      0.09999991	      0.04999999	      0.09999982	      0.04999999	      0.09999992	      0.04999999	      0.09999981	      0.04999999	      0.09999965	      0.04999999	      0.09999983	      0.04999999	      0.09999997	      0.04999999	      0.09999997	      0.04999999	      0.10000001	      0.04999999	      0.09999997	      0.04999999	      0.10000001	      0.04999999	      0.10000003	      0.04999999	      0.09999997	      0.04999999	      0.09999993	      0.04999999	      0.09999991	      0.04999999	      0.09999997	      0.04999999	      0.09999996	      0.04999999	      0.09999994	      0.04999999	      0.09999988	      0.04999999	      0.09999985	      0.04999999	      0.09999994	      0.04999999	      0.09999985	      0.04999999	      0.09999985	      0.04999999	      0.09999985	      0.04999999	      0.09999996	      0.04999999	      0.09999985	      0.04999999	      0.09999985
      0.00000003	     -0.00000000	     -0.00068681	     -0.00000000	     -0.00869520	      0.00000000	      0.02097671	     -0.00000001	     -0.59707954	      0.00000001	      0.57587920	     -0.00000001	     -0.55509071	      0.00000001	      0.60526068	     -0.00000001	     -0.86745609	      0.00000001	      0.54342518	      0.00000003	      2.21877263	     -0.00000003	     -2.21588703	     -0.00000001	     -0.54054821	      0.00000001	      0.86682608	      0.00000000	      0.00000000	     -0.00000000	     -0.00000000	     -0.00000000	     -0.00000000	     -0.00000000	     -0.03599737	     -0.00000001	     -0.15838144	     -0.00000001	      0.03422026	      0.00000000	      0.32384782	     -0.00000125	     -7.11198610	     90.00000010	      6.69051305	     -9.25200001	     -0.52445219	     -0.00000000	     -0.04504755	      0.00000001	      0.66910944	     20.00000005	     -0.01365622	     22.91831181	     -0.03201298	    -15.88200035	     -0.09533788	     -0.05087522	     -0.22123711	      0.01691022	      0.10057935	     -0.00000001	     -0.41479358	      0.00880791	      0.03944861	      0.03736630	     -0.17856333	      0.02613915	      0.12667314	     -0.00000001	     -0.41126852	      0.01852223	     -0.17353305	      0.00884272	      0.69350643	      0.00884324	      0.11586940	     -0.00000001	     -0.39035945	      0.00880841	     -0.08350524	      0.00884324	      0.03511803	      0.00884324	      0.08113419	     -0.00000001	     -0.35135516	      0.00880841	      0.00451735	      0.00884324	     -0.03190897	      0.04999998	      0.10000122	      0.04999998	      0.09999999	      0.04999998	      0.10000917	      0.04999998	      0.09999992	      0.04999998	      0.09999997	      0.04999998	      0.10000051	      0.04999998	      0.09999996	      0.04999998	      0.10001966	      0.04999998	      0.10012575	      0.04999998	      0.09999999	      0.04999998	      0.09999999	      0.04999998	      0.11285735	      0.04999998	      0.10321596	      0.04999998	      0.12388693	      0.04999998	      0.09999999	      0.04999998	      0.10000583	      0.04999998	      0.10000033	      0.04999998	      0.09999999	      0.04999998	      0.09999946	      0.04999998	      0.09999952	      0.04999998	      0.10000006	      0.04999998	      0.10000014	      0.04999998	      0.09999999	      0.04999998	      0.10000463	      0.04999998	      0.09999998	      0.04999998	      0.10000006	      0.04999998	      0.09999987	      0.04999998	      0.09999987	      0.04999998	      0.09999973	      0.04999998	      0.09999988	      0.04999998	      0.09999971	      0.04999998	      0.09999947	      0.04999998	      0.09999974	      0.04999998	      0.09999996	      0.04999998	      0.09999996	      0.04999998	      0.10000002	      0.04999998	      0.09999996	      0.04999998	      0.10000001	      0.04999998	      0.10000004	      0.04999998	      0.09999996	      0.04999998	      0.09999989	      0.04999998	      0.09999987	      0.04999998	      0.09999995	      0.04999998	      0.09999993	      0.04999998	      0.09999992	      0.04999998	      0.09999982	      0.04999998	      0.09999977	      0.04999998	      0.09999992	      0.04999998	      0.09999978	      0.04999998	      0.09999978	      0.04999998	      0.09999978	      0.04999998	      0.09999994	      0.04999998	      0.09999978	      0.04999998	      0.09999978
